<?xml version="1.0" encoding="UTF-8"?>
<!DOCTYPE svg PUBLIC "-//W3C//DTD SVG 1.1//EN" "http://www.w3.org/Graphics/SVG/1.1/DTD/svg11.dtd">
<!-- Creator: CorelDRAW 2019 (64-Bit Оценочная версия) -->
<svg xmlns="http://www.w3.org/2000/svg" xml:space="preserve" width="3.1962mm" height="3.1962mm" version="1.1" style="shape-rendering:geometricPrecision; text-rendering:geometricPrecision; image-rendering:optimizeQuality; fill-rule:evenodd; clip-rule:evenodd"
viewBox="0 0 2.47 2.47"
 xmlns:xlink="http://www.w3.org/1999/xlink"
 xmlns:xodm="http://www.corel.com/coreldraw/odm/2003">
 <defs>
  <style type="text/css">
   <![CDATA[
    .fil1 {fill:url(#id0)}
    .fil0 {fill:url(#id1)}
   ]]>
  </style>
  <linearGradient id="id0" gradientUnits="userSpaceOnUse" x1="1.83" y1="1.23" x2="0.64" y2="1.23">
   <stop offset="0" style="stop-opacity:1; stop-color:#DEB956"/>
   <stop offset="0.14902" style="stop-opacity:1; stop-color:#D8B150"/>
   <stop offset="0.611765" style="stop-opacity:1; stop-color:#FAE27B"/>
   <stop offset="0.721569" style="stop-opacity:1; stop-color:#FDF3AB"/>
   <stop offset="0.839216" style="stop-opacity:1; stop-color:#FAE27B"/>
   <stop offset="1" style="stop-opacity:1; stop-color:#F1D271"/>
  </linearGradient>
  <linearGradient id="id1" gradientUnits="userSpaceOnUse" xlink:href="#id0" x1="2.47" y1="1.23" x2="0" y2="1.23">
  </linearGradient>
 </defs>
 <g id="Слой_x0020_1">
  <metadata id="CorelCorpID_0Corel-Layer"/>
  <g id="_2772287133392">
   <g>
    <g>
     <path class="fil0" d="M1.23 0c-0.68,0 -1.23,0.55 -1.23,1.23 0,0.68 0.55,1.23 1.23,1.23 0.68,0 1.23,-0.55 1.23,-1.23 0,-0.68 -0.55,-1.23 -1.23,-1.23zm0 2.34c-0.61,0 -1.11,-0.5 -1.11,-1.11 0,-0.61 0.5,-1.11 1.11,-1.11 0.61,0 1.11,0.5 1.11,1.11 0,0.61 -0.5,1.11 -1.11,1.11z"/>
     <path class="fil1" d="M1.81 1.19l-0.35 -0.35c-0.02,-0.02 -0.06,-0.02 -0.09,0 -0.02,0.02 -0.02,0.06 0,0.09l0.24 0.24 -0.92 0c-0.03,0 -0.06,0.03 -0.06,0.06 0,0.03 0.03,0.06 0.06,0.06l0.92 0 -0.24 0.24c-0.02,0.02 -0.02,0.06 0,0.09 0.02,0.02 0.06,0.02 0.09,0l0.35 -0.35c0.01,-0.01 0.02,-0.03 0.02,-0.04 0,-0.02 -0.01,-0.03 -0.02,-0.04z"/>
    </g>
   </g>
   <g>
   </g>
   <g>
   </g>
   <g>
   </g>
   <g>
   </g>
   <g>
   </g>
   <g>
   </g>
   <g>
   </g>
   <g>
   </g>
   <g>
   </g>
   <g>
   </g>
   <g>
   </g>
   <g>
   </g>
   <g>
   </g>
   <g>
   </g>
   <g>
   </g>
  </g>
 </g>
</svg>
