<?xml version="1.0" encoding="UTF-8"?>
<!DOCTYPE svg PUBLIC "-//W3C//DTD SVG 1.1//EN" "http://www.w3.org/Graphics/SVG/1.1/DTD/svg11.dtd">
<!-- Creator: CorelDRAW 2019 (64-Bit Оценочная версия) -->
<svg xmlns="http://www.w3.org/2000/svg" xml:space="preserve" width="1.5391mm" height="1.5391mm" version="1.1" style="shape-rendering:geometricPrecision; text-rendering:geometricPrecision; image-rendering:optimizeQuality; fill-rule:evenodd; clip-rule:evenodd"
viewBox="0 0 0.61 0.61"
 xmlns:xlink="http://www.w3.org/1999/xlink"
 xmlns:xodm="http://www.corel.com/coreldraw/odm/2003">
 <defs>
  <style type="text/css">
   <![CDATA[
    .fil0 {fill:#B1987F}
   ]]>
  </style>
 </defs>
 <g id="Слой_x0020_1">
  <metadata id="CorelCorpID_0Corel-Layer"/>
  <g id="_2189877208736">
   <path class="fil0" d="M0.54 0.4c-0,-0 -0,-0 -0,-0 -0.01,-0.01 -0.02,-0.01 -0.03,-0.02 -0.01,-0 -0.02,0 -0.03,0.01l-0.11 0.08 -0.12 0c-0.01,0 -0.01,-0 -0.01,-0.01 0,-0.01 0,-0.01 0.01,-0.01l0.07 0c0.02,0 0.04,-0.02 0.04,-0.04 0,-0 0,-0 0,-0 -0,-0.02 -0.02,-0.03 -0.04,-0.03l-0.13 0c-0.01,0 -0.02,0 -0.03,0.01l-0.05 0.04c-0,0 -0,0 -0,0.01l0 0.12c0,0.01 0,0.01 0.01,0.01l0.25 0c0.02,-0 0.03,-0.01 0.05,-0.02l0.12 -0.1c0.02,-0.01 0.02,-0.03 0.01,-0.05zm-0.02 0.04l-0.12 0.1c-0.01,0.01 -0.02,0.01 -0.03,0.01l-0.24 0 0 -0.11 0.05 -0.04c0.01,-0 0.01,-0.01 0.02,-0.01l0.13 0c0.01,-0 0.02,0.01 0.02,0.02 0,0.01 -0.01,0.02 -0.02,0.02l-0.07 0c-0.02,0 -0.03,0.01 -0.03,0.03 0,0.02 0.01,0.03 0.03,0.03l0.12 0c0,0 0,-0 0.01,-0l0.12 -0.08c0,-0 0.01,-0 0.01,-0 0.01,0 0.01,0 0.01,0.01 0,0 0,0 0,0 0.01,0.01 0,0.02 -0.01,0.03z"/>
   <path class="fil0" d="M0.11 0.42l-0.11 0 0 0.02 0.1 0 0 0.15 -0.1 0 0 0.02 0.11 0c0.01,0 0.01,-0 0.01,-0.01l0 -0.17c0,-0.01 -0,-0.01 -0.01,-0.01z"/>
   <path class="fil0" d="M0.05 0.51c-0.02,0 -0.03,0.01 -0.03,0.03 0,0.02 0.01,0.03 0.03,0.03 0.02,0 0.03,-0.01 0.03,-0.03 0,-0.02 -0.01,-0.03 -0.03,-0.03zm0 0.04c-0.01,0 -0.01,-0 -0.01,-0.01 0,-0.01 0,-0.01 0.01,-0.01 0.01,0 0.01,0 0.01,0.01 0,0.01 -0,0.01 -0.01,0.01z"/>
   <path class="fil0" d="M0.6 0.31l-0.59 0c-0.01,0 -0.01,0 -0.01,0.01 0,0.04 0.03,0.07 0.07,0.07l0.47 0c0.04,0 0.07,-0.03 0.07,-0.07 0,-0.01 -0,-0.01 -0.01,-0.01zm-0.06 0.06l-0.47 0c-0.02,0 -0.04,-0.02 -0.05,-0.04l0.56 0c-0,0.02 -0.03,0.04 -0.05,0.04z"/>
   <path class="fil0" d="M0.3 0.05c-0.15,0 -0.26,0.12 -0.26,0.26l0 0.01c0,0.01 0,0.01 0.01,0.01l0.51 0c0.01,0 0.01,-0 0.01,-0.01l0 -0.01c0,-0.15 -0.12,-0.26 -0.26,-0.26zm-0.24 0.26c0,-0.13 0.11,-0.24 0.24,-0.24 0.13,0 0.24,0.11 0.24,0.24l-0.49 0z"/>
   <path class="fil0" d="M0.14 0.17c-0.01,0.01 -0.01,0.02 -0.02,0.03l0.02 0.01c0.01,-0.01 0.01,-0.02 0.02,-0.02l-0.02 -0.01z"/>
   <path class="fil0" d="M0.3 0.09c-0.06,0 -0.11,0.02 -0.15,0.06l0.01 0.01c0.04,-0.04 0.09,-0.05 0.14,-0.05l0 -0.02z"/>
   <rect class="fil0" x="0.27" y="-0" width="0.06" height="0.02"/>
   <rect class="fil0" x="0.29" y="0.01" width="0.02" height="0.05"/>
  </g>
 </g>
</svg>
