<?xml version="1.0" encoding="UTF-8"?>
<!DOCTYPE svg PUBLIC "-//W3C//DTD SVG 1.1//EN" "http://www.w3.org/Graphics/SVG/1.1/DTD/svg11.dtd">
<!-- Creator: CorelDRAW 2019 (64-Bit Оценочная версия) -->
<svg xmlns="http://www.w3.org/2000/svg" xml:space="preserve" width="1.8733mm" height="1.5644mm" version="1.1" style="shape-rendering:geometricPrecision; text-rendering:geometricPrecision; image-rendering:optimizeQuality; fill-rule:evenodd; clip-rule:evenodd"
viewBox="0 0 1.1 0.92"
 xmlns:xlink="http://www.w3.org/1999/xlink"
 xmlns:xodm="http://www.corel.com/coreldraw/odm/2003">
 <defs>
  <style type="text/css">
   <![CDATA[
    .fil0 {fill:#B1987F}
   ]]>
  </style>
 </defs>
 <g id="Слой_x0020_1">
  <metadata id="CorelCorpID_0Corel-Layer"/>
  <g id="_2189868445984">
   <path class="fil0" d="M1.07 0.36c0,0 0.01,0 0.01,0 0,0 0.01,-0 0.01,-0 0.01,-0 0.01,-0.01 0.01,-0.02l0 -0.1c0,-0.01 -0,-0.01 -0.01,-0.01l-0.29 -0.23c-0.02,-0.02 -0.05,-0.02 -0.07,0l-0.11 0.09 0 -0.03c0,-0.01 -0.01,-0.02 -0.02,-0.02l-0.08 0c-0.01,0 -0.02,0.01 -0.02,0.02l0 0.12 -0.07 0.05c-0,0 -0.01,0.01 -0.01,0.01l0 0.1c0,0.01 0,0.01 0.01,0.02 0.01,0 0.01,0 0.02,-0l0.01 -0.01 0 0.17 -0.17 -0.13c-0.02,-0.02 -0.05,-0.02 -0.07,0l-0.23 0.18c-0,0 -0.01,0.01 -0.01,0.01l0 0.1c0,0.01 0,0.01 0.01,0.02 0,0 0.01,0 0.01,0 0,0 0.01,-0 0.01,-0l0.01 -0.01 0 0.18 -0.02 0c-0.01,0 -0.02,0.01 -0.02,0.02 0,0.01 0.01,0.02 0.02,0.02l1.07 0c0.01,0 0.02,-0.01 0.02,-0.02 0,-0.01 -0.01,-0.02 -0.02,-0.02l-0.02 0 0 -0.53 0.01 0.01zm-0.52 -0.28l0.04 0 0 0.04 -0.04 0.03 0 -0.08 0 0zm-0.08 0.18l0.28 -0.22c0.01,-0.01 0.02,-0.01 0.03,0l0.28 0.22 0 0.05 -0.29 -0.22c-0,-0 -0.01,-0 -0.01,-0 -0,0 -0.01,0 -0.01,0l-0.29 0.22 0 -0.05 0 0zm-0.44 0.34l0.23 -0.18c0.01,-0.01 0.02,-0.01 0.03,0l0.19 0.15 0 0.05 -0.19 -0.15c-0.01,-0.01 -0.02,-0.01 -0.02,0l-0.23 0.18 0 -0.05zm0.04 0.07l0.2 -0.16 0.2 0.16 0 0.21 -0.08 0 0 -0.21c0,-0.01 -0.01,-0.02 -0.02,-0.02l-0.21 0c-0.01,0 -0.02,0.01 -0.02,0.02l0 0.21 -0.08 0 0 -0.21 0 0zm0.11 0.1l0.17 0 0 0.04 -0.17 0 0 -0.04zm0.17 -0.04l-0.17 0 0 -0.04 0.17 0 0 0.04zm-0.17 0.11l0.17 0 0 0.04 -0.17 0 0 -0.04zm0.52 -0.09c-0,0 -0,-0 -0,-0 -0,0 -0.01,0 -0.01,0.01 -0,0 -0.01,0.01 -0.01,0.01 0,0 0,0.01 0.01,0.01 0,0 0.01,0.01 0.01,0.01 0,0 0,0 0,-0l0 0.1 -0.08 0 0 -0.23 0.08 0 0 0.1zm0.32 0.13l-0.29 0 0 -0.25c0,-0.01 -0.01,-0.02 -0.02,-0.02l-0.11 -0c-0.01,0 -0.02,0.01 -0.02,0.02l0 0.25 -0.08 0 0 -0.56 0.26 -0.2 0.26 0.2 0 0.56 0 0z"/>
   <path class="fil0" d="M0.8 0.75l0.11 0c0.01,0 0.02,-0.01 0.02,-0.02l0 -0.15c0,-0.01 -0.01,-0.02 -0.02,-0.02l-0.11 -0c-0.01,0 -0.02,0.01 -0.02,0.02l0 0.15c0,0.01 0.01,0.02 0.02,0.02l0 0zm0.02 -0.04l0 -0.06 0.08 0 0 0.06 -0.08 0zm0.08 -0.12l0 0.02 -0.08 0 0 -0.02 0.08 0z"/>
   <path class="fil0" d="M0.8 0.49l0.11 0c0.01,0 0.02,-0.01 0.02,-0.02l0 -0.15c0,-0.01 -0.01,-0.02 -0.02,-0.02l-0.11 0c-0.01,0 -0.02,0.01 -0.02,0.02l0 0.15c0,0.01 0.01,0.02 0.02,0.02l0 0zm0.02 -0.04l0 -0.06 0.08 0 0 0.06 -0.08 0zm0.08 -0.12l0 0.02 -0.08 0 0 -0.02 0.08 0z"/>
   <path class="fil0" d="M0.71 0.3l-0.11 0c-0.01,0 -0.02,0.01 -0.02,0.02l0 0.15c0,0.01 0.01,0.02 0.02,0.02l0.11 0c0.01,0 0.02,-0.01 0.02,-0.02l0 -0.15c0,-0.01 -0.01,-0.02 -0.02,-0.02l0 0zm-0.02 0.04l0 0.02 -0.08 0 0 -0.02 0.08 0zm-0.08 0.12l0 -0.06 0.08 0 0 0.06 -0.08 0z"/>
  </g>
 </g>
</svg>
