<?xml version="1.0" encoding="UTF-8"?>
<!DOCTYPE svg PUBLIC "-//W3C//DTD SVG 1.1//EN" "http://www.w3.org/Graphics/SVG/1.1/DTD/svg11.dtd">
<!-- Creator: CorelDRAW 2019 (64-Bit Оценочная версия) -->
<svg xmlns="http://www.w3.org/2000/svg" xml:space="preserve" width="1.4585mm" height="1.4584mm" version="1.1" style="shape-rendering:geometricPrecision; text-rendering:geometricPrecision; image-rendering:optimizeQuality; fill-rule:evenodd; clip-rule:evenodd"
viewBox="0 0 0.62 0.62"
 xmlns:xlink="http://www.w3.org/1999/xlink"
 xmlns:xodm="http://www.corel.com/coreldraw/odm/2003">
 <defs>
  <style type="text/css">
   <![CDATA[
    .fil0 {fill:#B1987F}
   ]]>
  </style>
 </defs>
 <g id="Слой_x0020_1">
  <metadata id="CorelCorpID_0Corel-Layer"/>
  <g id="_1518393664096">
   <path class="fil0" d="M0.07 0.16l0.06 0c0.01,0 0.01,-0 0.01,-0.01l0 -0.06c0,-0.01 -0,-0.01 -0.01,-0.01l-0.06 0c-0.01,0 -0.01,0 -0.01,0.01l0 0.06c0,0.01 0,0.01 0.01,0.01l0 0zm0.01 -0.06l0.04 0 0 0.04 -0.04 0 0 -0.04z"/>
   <path class="fil0" d="M0.17 0.16l0.06 0c0.01,0 0.01,-0 0.01,-0.01l0 -0.06c0,-0.01 -0,-0.01 -0.01,-0.01l-0.06 0c-0.01,0 -0.01,0 -0.01,0.01l0 0.06c0,0.01 0,0.01 0.01,0.01l0 0zm0.01 -0.06l0.04 0 0 0.04 -0.04 0 0 -0.04z"/>
   <path class="fil0" d="M0.07 0.26l0.06 0c0.01,0 0.01,-0 0.01,-0.01l0 -0.06c0,-0.01 -0,-0.01 -0.01,-0.01l-0.06 0c-0.01,0 -0.01,0 -0.01,0.01l0 0.06c0,0.01 0,0.01 0.01,0.01zm0.01 -0.06l0.04 0 0 0.04 -0.04 0 0 -0.04z"/>
   <path class="fil0" d="M0.17 0.26l0.06 0c0.01,0 0.01,-0 0.01,-0.01l0 -0.06c0,-0.01 -0,-0.01 -0.01,-0.01l-0.06 0c-0.01,0 -0.01,0 -0.01,0.01l0 0.06c0,0.01 0,0.01 0.01,0.01zm0.01 -0.06l0.04 0 0 0.04 -0.04 0 0 -0.04z"/>
   <path class="fil0" d="M0.07 0.36l0.06 0c0.01,0 0.01,-0 0.01,-0.01l0 -0.06c0,-0.01 -0,-0.01 -0.01,-0.01l-0.06 0c-0.01,0 -0.01,0 -0.01,0.01l0 0.06c0,0.01 0,0.01 0.01,0.01l0 0zm0.01 -0.06l0.04 0 0 0.04 -0.04 0 0 -0.04z"/>
   <path class="fil0" d="M0.17 0.36l0.06 0c0.01,0 0.01,-0 0.01,-0.01l0 -0.06c0,-0.01 -0,-0.01 -0.01,-0.01l-0.06 0c-0.01,0 -0.01,0 -0.01,0.01l0 0.06c0,0.01 0,0.01 0.01,0.01l0 0zm0.01 -0.06l0.04 0 0 0.04 -0.04 0 0 -0.04z"/>
   <path class="fil0" d="M0.13 0.46c0.01,0 0.01,-0 0.01,-0.01l0 -0.06c0,-0.01 -0,-0.01 -0.01,-0.01l-0.06 0c-0.01,0 -0.01,0 -0.01,0.01l0 0.06c0,0.01 0,0.01 0.01,0.01l0.06 0zm-0.05 -0.06l0.04 0 0 0.04 -0.04 0 0 -0.04z"/>
   <path class="fil0" d="M0.17 0.46l0.06 0c0.01,0 0.01,-0 0.01,-0.01l0 -0.06c0,-0.01 -0,-0.01 -0.01,-0.01l-0.06 0c-0.01,0 -0.01,0 -0.01,0.01l0 0.06c0,0.01 0,0.01 0.01,0.01l0 0zm0.01 -0.06l0.04 0 0 0.04 -0.04 0 0 -0.04z"/>
   <path class="fil0" d="M0.39 0.16l0.06 0c0.01,0 0.01,-0 0.01,-0.01l0 -0.06c0,-0.01 -0,-0.01 -0.01,-0.01l-0.06 0c-0.01,0 -0.01,0 -0.01,0.01l0 0.06c0,0.01 0,0.01 0.01,0.01l0 0zm0.01 -0.06l0.04 0 0 0.04 -0.04 0 0 -0.04z"/>
   <path class="fil0" d="M0.49 0.16l0.06 0c0.01,0 0.01,-0 0.01,-0.01l0 -0.06c0,-0.01 -0,-0.01 -0.01,-0.01l-0.06 0c-0.01,0 -0.01,0 -0.01,0.01l0 0.06c0,0.01 0,0.01 0.01,0.01l0 0zm0.01 -0.06l0.04 0 0 0.04 -0.04 0 0 -0.04z"/>
   <path class="fil0" d="M0.39 0.26l0.06 0c0.01,0 0.01,-0 0.01,-0.01l0 -0.06c0,-0.01 -0,-0.01 -0.01,-0.01l-0.06 0c-0.01,0 -0.01,0 -0.01,0.01l0 0.06c0,0.01 0,0.01 0.01,0.01zm0.01 -0.06l0.04 0 0 0.04 -0.04 0 0 -0.04z"/>
   <path class="fil0" d="M0.49 0.26l0.06 0c0.01,0 0.01,-0 0.01,-0.01l0 -0.06c0,-0.01 -0,-0.01 -0.01,-0.01l-0.06 0c-0.01,0 -0.01,0 -0.01,0.01l0 0.06c0,0.01 0,0.01 0.01,0.01zm0.01 -0.06l0.04 0 0 0.04 -0.04 0 0 -0.04z"/>
   <path class="fil0" d="M0.39 0.36l0.06 0c0.01,0 0.01,-0 0.01,-0.01l0 -0.06c0,-0.01 -0,-0.01 -0.01,-0.01l-0.06 0c-0.01,0 -0.01,0 -0.01,0.01l0 0.06c0,0.01 0,0.01 0.01,0.01l0 0zm0.01 -0.06l0.04 0 0 0.04 -0.04 0 0 -0.04z"/>
   <path class="fil0" d="M0.49 0.36l0.06 0c0.01,0 0.01,-0 0.01,-0.01l0 -0.06c0,-0.01 -0,-0.01 -0.01,-0.01l-0.06 0c-0.01,0 -0.01,0 -0.01,0.01l0 0.06c0,0.01 0,0.01 0.01,0.01l0 0zm0.01 -0.06l0.04 0 0 0.04 -0.04 0 0 -0.04z"/>
   <path class="fil0" d="M0.39 0.46l0.06 0c0.01,0 0.01,-0 0.01,-0.01l0 -0.06c0,-0.01 -0,-0.01 -0.01,-0.01l-0.06 0c-0.01,0 -0.01,0 -0.01,0.01l0 0.06c0,0.01 0,0.01 0.01,0.01l0 0zm0.01 -0.06l0.04 0 0 0.04 -0.04 0 0 -0.04z"/>
   <path class="fil0" d="M0.49 0.46l0.06 0c0.01,0 0.01,-0 0.01,-0.01l0 -0.06c0,-0.01 -0,-0.01 -0.01,-0.01l-0.06 0c-0.01,0 -0.01,0 -0.01,0.01l0 0.06c0,0.01 0,0.01 0.01,0.01l0 0zm0.01 -0.06l0.04 0 0 0.04 -0.04 0 0 -0.04z"/>
   <path class="fil0" d="M0.61 0.06c0.01,0 0.01,-0 0.01,-0.01l0 -0.04c0,-0.01 -0,-0.01 -0.01,-0.01l-0.28 0c-0.01,0 -0.01,0 -0.01,0.01l0 0.04c0,0.01 0,0.01 0.01,0.01l0.01 0 0 0.04 -0.06 0 0 -0.04 0.01 0c0.01,0 0.01,-0 0.01,-0.01l0 -0.04c0,-0.01 -0,-0.01 -0.01,-0.01l-0.28 0c-0.01,0 -0.01,0 -0.01,0.01l0 0.04c0,0.01 0,0.01 0.01,0.01l0.01 0 0 0.5 -0.01 0c-0.01,0 -0.01,0 -0.01,0.01l0 0.04c0,0.01 0,0.01 0.01,0.01l0.6 0c0.01,0 0.01,-0 0.01,-0.01l0 -0.04c0,-0.01 -0,-0.01 -0.01,-0.01l-0.01 0 0 -0.5 0.01 0zm-0.27 -0.04l0.26 0 0 0.02 -0.26 0 0 -0.02zm-0.06 0.54l0 -0.1 0.06 0 0 0.1 -0.06 0zm0 -0.4l0.06 0 0 0.04 -0.06 0 0 -0.04zm0 0.06l0.06 0 0 0.02 -0.06 0 0 -0.02zm0 0.04l0.06 0 0 0.04 -0.06 0 0 -0.04zm0 0.06l0.06 0 0 0.02 -0.06 0 0 -0.02zm0 0.04l0.06 0 0 0.04 -0.06 0 0 -0.04zm0 0.06l0.06 0 0 0.02 -0.06 0 0 -0.02zm0.06 -0.3l0 0.02 -0.06 0 0 -0.02 0.06 0zm-0.32 -0.1l0.26 0 0 0.02 -0.26 0 0 -0.02zm0.02 0.04l0.22 0 0 0.5 -0.06 0 0 -0.03c0,-0.03 -0.02,-0.05 -0.05,-0.05 -0.03,0 -0.05,0.02 -0.05,0.05l0 0.03 -0.06 0 0 -0.5zm0.14 0.5l-0.06 0 0 -0.03c0,-0.02 0.01,-0.03 0.03,-0.03 0.02,0 0.03,0.01 0.03,0.03l0 0.03zm0.42 0.04l-0.58 0 0 -0.02 0.58 0 0 0.02zm-0.1 -0.04l-0.06 0 0 -0.03c0,-0.02 0.01,-0.03 0.03,-0.03 0.02,0 0.03,0.01 0.03,0.03l0 0.03zm0.08 0l-0.06 0 0 -0.03c0,-0.03 -0.02,-0.05 -0.05,-0.05 -0.03,0 -0.05,0.02 -0.05,0.05l0 0.03 -0.06 0 0 -0.5 0.22 0 0 0.5z"/>
  </g>
 </g>
</svg>
