<?xml version="1.0" encoding="UTF-8"?>
<!DOCTYPE svg PUBLIC "-//W3C//DTD SVG 1.1//EN" "http://www.w3.org/Graphics/SVG/1.1/DTD/svg11.dtd">
<!-- Creator: CorelDRAW 2019 (64-Bit Оценочная версия) -->
<svg xmlns="http://www.w3.org/2000/svg" xml:space="preserve" width="3.7112mm" height="3.7112mm" version="1.1" style="shape-rendering:geometricPrecision; text-rendering:geometricPrecision; image-rendering:optimizeQuality; fill-rule:evenodd; clip-rule:evenodd"
viewBox="0 0 4.82 4.82"
 xmlns:xlink="http://www.w3.org/1999/xlink"
 xmlns:xodm="http://www.corel.com/coreldraw/odm/2003">
 <defs>
  <style type="text/css">
   <![CDATA[
    .fil0 {fill:#C39B6D}
   ]]>
  </style>
 </defs>
 <g id="Слой_x0020_1">
  <metadata id="CorelCorpID_0Corel-Layer"/>
  <path class="fil0" d="M2.33 3.37l0.16 0 0 0.16 -0.16 0 0 -0.16zm0 -2.09l0.16 0 0 0.16 -0.16 0 0 -0.16zm2.44 1.69c-0.03,-0.01 -0.07,-0 -0.09,0.02l-0.34 0.36 0 -2.14 0 0 0.33 -0.35c0.03,-0.03 0.03,-0.08 -0,-0.11 0,0 -0,-0 -0,-0l-0.12 -0.11 0.16 -0.18c0.03,-0.03 0.03,-0.08 -0,-0.11l-0.35 -0.33c-0.03,-0.03 -0.08,-0.03 -0.11,0l-0.57 0.62 -2.78 0c-0,-0.22 -0.18,-0.4 -0.4,-0.4l-0.08 0c-0.22,0 -0.4,0.18 -0.4,0.4l0 3.45c0,0.04 0.04,0.08 0.08,0.08l1.22 0 -0.17 0.2c-0.03,0.03 -0.02,0.08 0.01,0.11l0.37 0.31c0.03,0.03 0.08,0.02 0.11,-0.01 0,0 0,0 0,0l0.41 -0.49c0.03,-0.03 0.05,-0.08 0.05,-0.12l1.47 0 -0.48 0.51c-0.03,0.03 -0.03,0.08 0,0.11 0.01,0.01 0.03,0.02 0.06,0.02l1.61 0c0.04,0 0.08,-0.04 0.08,-0.08l0 -1.69c0,-0.03 -0.02,-0.06 -0.05,-0.07zm-0.28 -2.17l-0.16 0.17 0 -0.12 0.1 -0.1 0.06 0.05zm-0.32 -0.01l0 0 -0.68 0.73 -0.24 -0.22 0.82 -0.88 0.24 0.22 -0.14 0.15 -0 0zm-0.83 0.81l-0.18 0.05 0.04 -0.19 0.15 0.13zm0.95 -1.41l0.24 0.22 -0.11 0.12 -0.24 -0.22 0.11 -0.12zm-3.9 0.21l0.08 0c0.13,0 0.24,0.11 0.24,0.24l0 3.05c-0.07,-0.05 -0.15,-0.08 -0.24,-0.08l-0.08 0c-0.09,0 -0.17,0.03 -0.24,0.08l0 -3.05c0,-0.13 0.11,-0.24 0.24,-0.24l0 0zm0 3.37l0.08 0c0.13,0 0.24,0.11 0.24,0.24l-0.56 0c0,-0.13 0.11,-0.24 0.24,-0.24zm1.51 0.42l-0.05 0.06 -0.25 -0.21 0.05 -0.06c0.03,-0.03 0.08,-0.04 0.11,-0.01 0,0 0,0 0,0l0.12 0.1c0.03,0.03 0.04,0.08 0.01,0.11 0,0 0,0 0,0l0 0zm-0.36 0.43l-0.25 -0.21 0.21 -0.25 0.25 0.21 -0.21 0.25zm0.5 -0.61c-0.01,-0.02 -0.03,-0.04 -0.05,-0.06l-0.12 -0.1c-0.1,-0.09 -0.25,-0.07 -0.34,0.03l-0.11 0.13 -0.55 0 0 -3.21 2.63 0 -0.43 0.46c-0.01,0.01 -0.01,0.01 -0.01,0.02 -0,0 -0,0 -0,0.01 -0,0 -0,0 -0,0.01l-0.1 0.46c-0.01,0.04 0.02,0.09 0.06,0.1 0.01,0 0.03,0 0.04,-0l0.45 -0.13c0,-0 0,-0 0.01,-0 0,-0 0,-0 0.01,-0 0.01,-0 0.02,-0.01 0.02,-0.02l0.62 -0.67 0 2.49 -0.47 0.49 -1.66 0zm2.61 0.64l-1.34 0 1.34 -1.41 0 1.41zm-1.12 -1.61l-0.56 0 0 -0.88c-0,-0.02 -0.01,-0.04 -0.02,-0.06l-0.48 -0.48c-0.03,-0.03 -0.08,-0.03 -0.11,0l-0.48 0.48c-0.02,0.02 -0.02,0.04 -0.02,0.06l0 0.88 -0.56 0c-0.04,0 -0.08,0.04 -0.08,0.08 0,0.04 0.04,0.08 0.08,0.08l2.25 0c0.04,0 0.08,-0.04 0.08,-0.08 0,-0.04 -0.04,-0.08 -0.08,-0.08zm-1.12 -1.25l0.29 0.29 -0.58 0 0.29 -0.29zm-0.4 0.45l0.8 0 0 0.8 -0.8 0 0 -0.8zm1.77 2.2c0.01,0.03 0.04,0.05 0.07,0.05l0.56 0c0.04,0 0.08,-0.04 0.08,-0.08l0 -0.56c0,-0.04 -0.04,-0.08 -0.08,-0.08 -0.02,0 -0.04,0.01 -0.06,0.02l-0.56 0.56c-0.02,0.02 -0.03,0.06 -0.02,0.09l0 0zm0.56 -0.4l0 0.29 -0.29 0 0.29 -0.29z"/>
 </g>
</svg>
