<?xml version="1.0" encoding="UTF-8"?>
<!DOCTYPE svg PUBLIC "-//W3C//DTD SVG 1.1//EN" "http://www.w3.org/Graphics/SVG/1.1/DTD/svg11.dtd">
<!-- Creator: CorelDRAW 2019 (64-Bit Оценочная версия) -->
<svg xmlns="http://www.w3.org/2000/svg" xml:space="preserve" width="1.9013mm" height="1.9013mm" version="1.1" style="shape-rendering:geometricPrecision; text-rendering:geometricPrecision; image-rendering:optimizeQuality; fill-rule:evenodd; clip-rule:evenodd"
viewBox="0 0 0.99 0.99"
 xmlns:xlink="http://www.w3.org/1999/xlink"
 xmlns:xodm="http://www.corel.com/coreldraw/odm/2003">
 <defs>
  <style type="text/css">
   <![CDATA[
    .fil0 {fill:#B1987F}
   ]]>
  </style>
 </defs>
 <g id="Слой_x0020_1">
  <metadata id="CorelCorpID_0Corel-Layer"/>
  <g id="_2189779856656">
   <path id="XMLID_1699_" class="fil0" d="M0.18 0.36c0.1,0 0.18,-0.08 0.18,-0.18 0,-0.1 -0.08,-0.18 -0.18,-0.18 -0.1,0 -0.18,0.08 -0.18,0.18 0,0.1 0.08,0.18 0.18,0.18zm0 -0.32c0.08,0 0.14,0.06 0.14,0.14 0,0.08 -0.06,0.14 -0.14,0.14 -0.08,0 -0.14,-0.06 -0.14,-0.14 0,-0.08 0.06,-0.14 0.14,-0.14z"/>
   <path id="XMLID_1701_" class="fil0" d="M0.19 0.22c0,0 0.01,0.01 0.01,0.01 0,0 0.01,-0 0.01,-0.01 0.01,-0.01 0.01,-0.02 -0,-0.03l-0.02 -0.02 0 -0.09c0,-0.01 -0.01,-0.02 -0.02,-0.02 -0.01,0 -0.02,0.01 -0.02,0.02l0 0.09c0,0.01 0,0.01 0.01,0.01l0.03 0.03z"/>
   <path id="XMLID_1706_" class="fil0" d="M0.97 0.64l-0.12 0c-0.02,-0.02 -0.04,-0.04 -0.07,-0.05l-0.08 -0.02c0.03,-0.02 0.06,-0.06 0.06,-0.11l0 -0.05 0 -0.02 0 -0c0,-0.07 -0.06,-0.13 -0.13,-0.13 -0.07,0 -0.13,0.06 -0.13,0.13l0 0 0 0.02 0 0.05c0,0.04 0.02,0.08 0.06,0.11l-0.08 0.02c-0,0 -0.01,0 -0.01,0l0 -0.16c0,-0.01 -0.01,-0.02 -0.02,-0.02l-0.13 0c-0.01,0 -0.02,0.01 -0.02,0.02 0,0.01 0.01,0.02 0.02,0.02l0.11 0 0 0.27 -0.13 0 0 -0.1c0,-0.03 -0.03,-0.06 -0.06,-0.06 -0.03,0 -0.06,0.03 -0.06,0.06l0 0.1 -0.13 0 0 -0.27 0.11 0c0.01,0 0.02,-0.01 0.02,-0.02 0,-0.01 -0.01,-0.02 -0.02,-0.02l-0.13 0c-0.01,0 -0.02,0.01 -0.02,0.02l0 0.31c0,0.01 0.01,0.02 0.02,0.02l0.15 0 0 0.04 -0 0c-0.03,0 -0.06,0.03 -0.06,0.06l0 0.01 -0.09 0c-0.01,0 -0.02,0.01 -0.02,0.02l0 0.08c0,0.01 0.01,0.02 0.02,0.02l0.95 0c0.01,0 0.02,-0.01 0.02,-0.02l0 -0.08 0 -0.08 0 -0.08 0 -0.08c0,-0.01 -0.01,-0.02 -0.02,-0.02zm-0.12 0.23l-0.11 0 0 -0.04 0.21 0 0 0.04 -0.1 0zm0.1 -0.08l-0.21 0 0 -0.04 0.21 0 0 0.04zm0 -0.08l-0.21 0 0 -0.04 0.1 0c0,0 0,0 0,0 0,0 0,0 0,0l0.11 0 0 0.04zm-0.42 -0.32c0,-0.05 0.04,-0.09 0.09,-0.09 0.05,0 0.09,0.04 0.09,0.08l-0.04 -0.03c-0.01,-0 -0.02,-0 -0.02,0 -0.02,0.02 -0.05,0.04 -0.08,0.04l-0.03 0 0 -0 0 -0 0 0zm0 0.05l0.03 0c0.04,0 0.07,-0.01 0.1,-0.04l0.05 0.03 0 0.04c0,0.05 -0.04,0.09 -0.09,0.09 -0.05,0 -0.09,-0.04 -0.09,-0.09l0 -0.03 0 0zm0.12 0.15l-0.03 0.08 -0.03 -0.08c0.01,0 0.02,0 0.03,0 0.01,0 0.02,-0 0.03,-0zm-0.22 0.17c0.01,0 0.02,-0.01 0.02,-0.02l0 -0.11c0.01,-0 0.01,-0.01 0.02,-0.01l0.08 -0.02 0.05 0.12c0,0.01 0.01,0.01 0.02,0.01 0.01,0 0.02,-0.01 0.02,-0.01l0.05 -0.12 0.08 0.02c0.01,0 0.01,0 0.02,0.01l-0.07 0c-0.01,0 -0.02,0.01 -0.02,0.02l0 0.08 0 0.08 0 0.06 -0.29 0 0 -0.11 0.02 0 0 0zm-0.06 0l0 0.11 -0.03 0 0 -0.01c0,-0.03 -0.03,-0.06 -0.06,-0.06l-0 0 0 -0.04 0.09 0zm-0.17 -0.13c0,-0.01 0.01,-0.02 0.02,-0.02 0.01,0 0.02,0.01 0.02,0.02l0 0.17 -0.04 0 0 -0.17zm-0.06 0.23c0,-0.01 0.01,-0.02 0.02,-0.02l0.02 0 0.08 0 0.02 0c0.01,0 0.02,0.01 0.02,0.02l0 0.01 -0.16 0 0 -0.01zm0.8 0.09l-0.91 0 0 -0.04 0.91 0 0 0.04z"/>
   <path id="XMLID_1768_" class="fil0" d="M0.21 0.42c-0,0 -0.01,0.01 -0.01,0.01 0,0.01 0,0.01 0.01,0.01 0,0 0.01,0.01 0.01,0.01 0.01,0 0.01,-0 0.01,-0.01 0,-0 0.01,-0.01 0.01,-0.01 0,-0.01 -0,-0.01 -0.01,-0.01 -0,-0 -0.01,-0.01 -0.01,-0.01 -0.01,0 -0.01,0 -0.01,0.01z"/>
  </g>
 </g>
</svg>
